<svg width="12" height="12" viewBox="0 0 12 12" fill="none" xmlns="http://www.w3.org/2000/svg">
<g id="star_rate_16dp_25283D_FILL0_wght400_GRAD0_opsz20 1">
<path id="Vector" d="M4.72501 7.78749L6.00001 6.81249L7.27501 7.78749L6.80001 6.23749L8.22501 5.09999H6.51251L6.00001 3.52499L5.50001 5.09999H3.77501L5.21251 6.23749L4.72501 7.78749ZM6.00001 7.94999L4.15001 9.34999C4.05834 9.41665 3.96667 9.4479 3.87501 9.44374C3.78334 9.43957 3.70001 9.41249 3.62501 9.36249C3.55001 9.31249 3.49376 9.24374 3.45626 9.15624C3.41876 9.06874 3.41667 8.97082 3.45001 8.86249L4.16251 6.56249L2.20001 4.99999C2.11667 4.93332 2.06459 4.85415 2.04376 4.76249C2.02292 4.67082 2.02917 4.58332 2.06251 4.49999C2.09584 4.41665 2.14792 4.34582 2.21876 4.28749C2.28959 4.22915 2.37917 4.19999 2.48751 4.19999H4.83751L5.57501 1.92499C5.60834 1.81665 5.66459 1.73749 5.74376 1.68749C5.82292 1.63749 5.90834 1.61249 6.00001 1.61249C6.09167 1.61249 6.17709 1.63749 6.25626 1.68749C6.33542 1.73749 6.39167 1.81665 6.42501 1.92499L7.16251 4.19999H9.51251C9.62084 4.19999 9.71042 4.22915 9.78126 4.28749C9.85209 4.34582 9.90417 4.41665 9.93751 4.49999C9.97084 4.58332 9.97709 4.67082 9.95626 4.76249C9.93542 4.85415 9.88334 4.93332 9.80001 4.99999L7.83751 6.56249L8.55001 8.86249C8.58334 8.97082 8.58126 9.06874 8.54376 9.15624C8.50626 9.24374 8.45001 9.31249 8.37501 9.36249C8.30001 9.41249 8.21667 9.43957 8.12501 9.44374C8.03334 9.4479 7.94167 9.41665 7.85001 9.34999L6.00001 7.94999Z" fill="#25283D"/>
</g>
</svg>
